<?xml version="1.0" encoding="UTF-8" standalone="no"?>
<!DOCTYPE svg PUBLIC "-//W3C//DTD SVG 1.1//EN" "http://www.w3.org/Graphics/SVG/1.1/DTD/svg11.dtd">
<svg version="1.1" xmlns="http://www.w3.org/2000/svg" xmlns:xlink="http://www.w3.org/1999/xlink" preserveAspectRatio="xMidYMid meet" viewBox="0 0 230 230" width="230" height="230"><defs><path d="M230 0C230 0 230 0 230 0C230 138 230 214.67 230 230C230 230 230 230 230 230C92 230 15.33 230 0 230C0 230 0 230 0 230C0 92 0 15.33 0 0C0 0 0 0 0 0C138 0 214.67 0 230 0Z" id="a5qDGgUHl7"></path><path d="M110.5 96L133.5 136L110.5 176L150.5 176L173.5 136L150.5 96L110.5 96Z" id="a5vCiPCJRj"></path><path d="M162.5 96L185.5 136L162.5 176L202.5 176L225.5 136L202.5 96L162.5 96Z" id="f3Fxhcq5Hn"></path><path d="M121.5 56L81.5 56L58.5 96L81.5 136L121.5 136L98.5 96L121.5 56Z" id="insRtMKWV"></path><path d="M29.5 56L6.5 96L29.5 136L69.5 136L46.5 96L69.5 56L29.5 56Z" id="a1FUzn5Ku"></path></defs><g><g><use xlink:href="#a5qDGgUHl7" opacity="1" fill="#2d98e0" fill-opacity="1"></use><g><use xlink:href="#a5qDGgUHl7" opacity="1" fill-opacity="0" stroke="#000000" stroke-width="1" stroke-opacity="0"></use></g></g><g><use xlink:href="#a5vCiPCJRj" opacity="1" fill="#ffffff" fill-opacity="1"></use><g><use xlink:href="#a5vCiPCJRj" opacity="1" fill-opacity="0" stroke="#000000" stroke-width="1" stroke-opacity="0"></use></g></g><g><use xlink:href="#f3Fxhcq5Hn" opacity="1" fill="#ffffff" fill-opacity="1"></use><g><use xlink:href="#f3Fxhcq5Hn" opacity="1" fill-opacity="0" stroke="#000000" stroke-width="1" stroke-opacity="0"></use></g></g><g><use xlink:href="#insRtMKWV" opacity="1" fill="#ffffff" fill-opacity="1"></use><g><use xlink:href="#insRtMKWV" opacity="1" fill-opacity="0" stroke="#000000" stroke-width="1" stroke-opacity="0"></use></g></g><g><use xlink:href="#a1FUzn5Ku" opacity="1" fill="#ffffff" fill-opacity="1"></use><g><use xlink:href="#a1FUzn5Ku" opacity="1" fill-opacity="0" stroke="#000000" stroke-width="1" stroke-opacity="0"></use></g></g></g></svg>
